<svg width="34" height="45" viewBox="0 0 34 45" fill="none" xmlns="http://www.w3.org/2000/svg">
<rect x="12.9246" y="21.75" width="6.84247" height="23.25" fill="black"/>
<path d="M16.726 0C26.0448 0 33.4521 2.57812 33.4521 5.85938V7.03125V30.4688C33.4521 31.7651 32.3843 32.8125 31.0626 32.8125V35.1562C31.0626 36.4526 29.9948 37.5 28.6732 37.5H26.2838C24.9621 37.5 23.8943 36.4526 23.8943 35.1562V32.8125H9.55773V35.1562C9.55773 36.4526 8.48995 37.5 7.1683 37.5H4.77886C3.45721 37.5 2.38943 36.4526 2.38943 35.1562V32.8125C1.06778 32.8125 0 31.7651 0 30.4688V7.03125V5.85938C0 2.57812 7.40724 0 16.726 0ZM4.77886 9.375V18.75C4.77886 20.0464 5.84664 21.0938 7.1683 21.0938H26.2838C27.6054 21.0938 28.6732 20.0464 28.6732 18.75V9.375C28.6732 8.07861 27.6054 7.03125 26.2838 7.03125H7.1683C5.84664 7.03125 4.77886 8.07861 4.77886 9.375ZM5.97358 29.2969C6.6073 29.2969 7.21506 29.0499 7.66317 28.6104C8.11127 28.1709 8.36301 27.5747 8.36301 26.9531C8.36301 26.3315 8.11127 25.7354 7.66317 25.2958C7.21506 24.8563 6.6073 24.6094 5.97358 24.6094C5.33986 24.6094 4.7321 24.8563 4.284 25.2958C3.83589 25.7354 3.58415 26.3315 3.58415 26.9531C3.58415 27.5747 3.83589 28.1709 4.284 28.6104C4.7321 29.0499 5.33986 29.2969 5.97358 29.2969ZM27.4785 29.2969C28.1122 29.2969 28.72 29.0499 29.1681 28.6104C29.6162 28.1709 29.8679 27.5747 29.8679 26.9531C29.8679 26.3315 29.6162 25.7354 29.1681 25.2958C28.72 24.8563 28.1122 24.6094 27.4785 24.6094C26.8448 24.6094 26.237 24.8563 25.7889 25.2958C25.3408 25.7354 25.089 26.3315 25.089 26.9531C25.089 27.5747 25.3408 28.1709 25.7889 28.6104C26.237 29.0499 26.8448 29.2969 27.4785 29.2969Z" fill="#286D34"/>
</svg>
