<svg width="33" height="45" viewBox="0 0 33 45" fill="none" xmlns="http://www.w3.org/2000/svg">
<path d="M0 12.6562C0 9.2996 1.7088 6.08044 4.75049 3.70693C7.79217 1.33342 11.9176 0 16.2192 0C20.5208 0 24.6462 1.33342 27.6879 3.70693C30.7296 6.08044 32.4384 9.2996 32.4384 12.6562C32.4384 16.0129 30.7296 19.2321 27.6879 21.6056C24.6462 23.9791 20.5208 25.3125 16.2192 25.3125C11.9176 25.3125 7.79217 23.9791 4.75049 21.6056C1.7088 19.2321 0 16.0129 0 12.6562ZM16.2192 7.03125C17.2103 7.03125 18.0213 6.39844 18.0213 5.625C18.0213 4.85156 17.2103 4.21875 16.2192 4.21875C10.2496 4.21875 5.40639 7.99805 5.40639 12.6562C5.40639 13.4297 6.21735 14.0625 7.20852 14.0625C8.1997 14.0625 9.01065 13.4297 9.01065 12.6562C9.01065 9.55371 12.2432 7.03125 16.2192 7.03125ZM12.6149 42.1875V27.8701C13.7863 28.0371 14.9915 28.125 16.2192 28.125C17.4469 28.125 18.6521 28.0371 19.8234 27.8701V42.1875C19.8234 43.7432 18.2128 45 16.2192 45C14.2256 45 12.6149 43.7432 12.6149 42.1875Z" fill="#F2080C"/>
</svg>
