<svg width="36" height="40" viewBox="0 0 36 40" fill="none" xmlns="http://www.w3.org/2000/svg">
<path d="M17.6086 0C16.217 0 15.0928 1.10546 15.0928 2.47375V3.958C9.35384 5.10211 5.02994 10.096 5.02994 16.0794V17.5327C5.02994 21.166 3.66988 24.6757 1.21705 27.3968L0.635287 28.0384C-0.0250897 28.7651 -0.182322 29.8087 0.218621 30.6977C0.619564 31.5867 1.52365 32.1588 2.51422 32.1588H32.7029C33.6935 32.1588 34.5897 31.5867 34.9985 30.6977C35.4073 29.8087 35.2422 28.7651 34.5818 28.0384L34.0001 27.3968C31.5472 24.6757 30.1872 21.1738 30.1872 17.5327V16.0794C30.1872 10.096 25.8633 5.10211 20.1243 3.958V2.47375C20.1243 1.10546 19.0001 0 17.6086 0ZM21.1699 38.1344C22.1133 37.2068 22.64 35.9467 22.64 34.6325H17.6086H12.5771C12.5771 35.9467 13.1038 37.2068 14.0472 38.1344C14.9906 39.0621 16.2721 39.58 17.6086 39.58C18.945 39.58 20.2265 39.0621 21.1699 38.1344Z" fill="#F7BA21"/>
</svg>
