<svg width="34" height="45" viewBox="0 0 34 45" fill="none" xmlns="http://www.w3.org/2000/svg">
<rect x="13.5232" y="24.1791" width="6.40571" height="20.8209" fill="black"/>
<path d="M16.726 31.5672C21.162 31.5672 25.4164 29.9043 28.5531 26.9443C31.6899 23.9843 33.4521 19.9696 33.4521 15.7836C33.4521 11.5975 31.6899 7.5829 28.5531 4.6229C25.4164 1.66291 21.162 0 16.726 0C12.29 0 8.03568 1.66291 4.89894 4.6229C1.7622 7.5829 0 11.5975 0 15.7836C0 19.9696 1.7622 23.9843 4.89894 26.9443C8.03568 29.9043 12.29 31.5672 16.726 31.5672ZM12.5445 9.86474H20.9075C22.064 9.86474 22.9983 10.7464 22.9983 11.8377V19.7295C22.9983 20.8208 22.064 21.7024 20.9075 21.7024H12.5445C11.3881 21.7024 10.4538 20.8208 10.4538 19.7295V11.8377C10.4538 10.7464 11.3881 9.86474 12.5445 9.86474Z" fill="#0947CD"/>
</svg>
