<svg width="36" height="40" viewBox="0 0 36 40" fill="none" xmlns="http://www.w3.org/2000/svg">
<path d="M35.6493 7.42125C35.6493 11.302 31.5838 17.0921 29.8296 19.4035C29.5682 19.7436 29.183 19.875 28.8322 19.79H22.4416C21.224 19.79 20.2403 20.8955 20.2403 22.2638C20.2403 23.6321 21.224 24.7375 22.4416 24.7375H29.0454C32.6913 24.7375 35.6493 28.0616 35.6493 32.1588C35.6493 36.2559 32.6913 39.58 29.0454 39.58H10.0318C10.6303 38.8147 11.3595 37.8329 12.0955 36.7352C12.5289 36.0858 12.976 35.3746 13.4025 34.6325H29.0454C30.263 34.6325 31.2467 33.5271 31.2467 32.1588C31.2467 30.7905 30.263 29.685 29.0454 29.685H22.4416C18.7957 29.685 15.8377 26.3609 15.8377 22.2638C15.8377 18.1666 18.7957 14.8425 22.4416 14.8425H25.1794C23.7348 12.4074 22.4416 9.60898 22.4416 7.42125C22.4416 3.3241 25.3995 0 29.0454 0C32.6913 0 35.6493 3.3241 35.6493 7.42125ZM8.48404 37.8097C8.22264 38.1422 7.98875 38.4359 7.78926 38.6833L7.66544 38.8379L7.65168 38.8224C7.23894 39.178 6.64734 39.1316 6.27588 38.6833C4.54236 36.5651 0.428711 31.1152 0.428711 27.2113C0.428711 23.1141 3.38669 19.79 7.03257 19.79C10.6784 19.79 13.6364 23.1141 13.6364 27.2113C13.6364 29.5304 12.185 32.3907 10.6441 34.7794C9.908 35.9158 9.1513 36.9439 8.52531 37.7556L8.48404 37.8097ZM9.23385 27.2113C9.23385 26.5552 9.00193 25.926 8.58911 25.4621C8.17629 24.9981 7.61638 24.7375 7.03257 24.7375C6.44875 24.7375 5.88884 24.9981 5.47602 25.4621C5.0632 25.926 4.83128 26.5552 4.83128 27.2113C4.83128 27.8673 5.0632 28.4965 5.47602 28.9605C5.88884 29.4244 6.44875 29.685 7.03257 29.685C7.61638 29.685 8.17629 29.4244 8.58911 28.9605C9.00193 28.4965 9.23385 27.8673 9.23385 27.2113ZM29.0454 9.895C29.6292 9.895 30.1891 9.63438 30.602 9.17046C31.0148 8.70654 31.2467 8.07733 31.2467 7.42125C31.2467 6.76517 31.0148 6.13597 30.602 5.67205C30.1891 5.20813 29.6292 4.9475 29.0454 4.9475C28.4616 4.9475 27.9017 5.20813 27.4889 5.67205C27.0761 6.13597 26.8441 6.76517 26.8441 7.42125C26.8441 8.07733 27.0761 8.70654 27.4889 9.17046C27.9017 9.63438 28.4616 9.895 29.0454 9.895Z" fill="#296E03"/>
</svg>
