<svg width="36" height="40" viewBox="0 0 36 40" fill="none" xmlns="http://www.w3.org/2000/svg">
<path d="M3.27441 23.3448L15.7048 38.5947C16.2207 39.2275 16.9017 39.58 17.6103 39.58C18.3188 39.58 18.9998 39.2275 19.5158 38.5947L31.9462 23.3448C34.0374 20.7866 35.2206 17.1978 35.2206 13.4464V12.9221C35.2206 6.60338 31.7467 1.21575 27.007 0.176192C23.8702 -0.510821 20.6783 0.836087 18.4358 3.78301L17.6103 4.86777L16.7848 3.78301C14.5422 0.836087 11.3504 -0.510821 8.21355 0.176192C3.4739 1.21575 0 6.60338 0 12.9221V13.4464C0 17.1978 1.18319 20.7866 3.27441 23.3448Z" fill="#F30808"/>
</svg>
